# xmcd
#
# Track frame offsets:
#	150
#	20782
#	40936
#	49760
#	65193
#	75118
#	92845
#	110149
#	137311
#	162252
#	172383
#	186832
#
# Disc length: 2755 seconds
#
# Revision: 0
# Processed by: cddbd v1.5.1PL0 Copyright (c) Steve Scherf et al.
# Submitted via: dBpowerAMP V4.0
#
DISCID=a50ac10c
DTITLE=Various Artist - Presenting The Alan Lomax Collection
DYEAR=1947
DGENRE=
TTITLE0=John Henry - Ed Lewis
TTITLE1=Pharaoh - Mrs. Sidney Carter
TTITLE2=I Wished I Was In Heaven - Mississippi Fred McDowell
TTITLE3=I'm Going Home - Ervin Webb And Prisoners
TTITLE4=No More, My Lawd - Henry Jimpson Wallace
TTITLE5=Whoa Buck - C.B. '88' Cook
TTITLE6=O Death - Bessie Jones
TTITLE7=Menhadden Chanteys - Bright Light Quarter
TTITLE8=Hangman Tree - Almeda Riddle
TTITLE9=Jim And John - Ed Young, Lonnie Young And Lonnie Young jr.
TTITLE10=Rosie - C.B. '88' Cook And Axe Gang
TTITLE11=I'm A Soldier In The Army Of The Lord - Peerless Four
EXTD=CRSCD 810. P&C 2004, Marketed by Continental Record Services\nVadaring 92, 6702 EB Wageningen, The Netherlands\nPhone: 31(0)317 497654  Fax: 31(0)317 419119\nMail: news @ continental . nl\n"Sampler features the original recordings from the Tangle E
EXTD=ye remix"\n
EXTT0=
EXTT1=
EXTT2=
EXTT3=
EXTT4=
EXTT5=
EXTT6=
EXTT7=
EXTT8=
EXTT9=
EXTT10=
EXTT11=
PLAYORDER=
